<svg width="128" height="128" viewBox="0 0 128 128" fill="none" xmlns="http://www.w3.org/2000/svg">
  <defs>
    <linearGradient id="bg" x1="14" y1="10" x2="116" y2="118" gradientUnits="userSpaceOnUse">
      <stop stop-color="#13284A"/>
      <stop offset="0.56" stop-color="#114868"/>
      <stop offset="1" stop-color="#0B6A67"/>
    </linearGradient>
    <linearGradient id="ring" x1="32" y1="24" x2="98" y2="104" gradientUnits="userSpaceOnUse">
      <stop stop-color="#7FD7FF"/>
      <stop offset="1" stop-color="#FFC56E"/>
    </linearGradient>
    <linearGradient id="rook" x1="46" y1="36" x2="82" y2="94" gradientUnits="userSpaceOnUse">
      <stop stop-color="#FFF7E8"/>
      <stop offset="1" stop-color="#E7EEF8"/>
    </linearGradient>
  </defs>

  <rect x="8" y="8" width="112" height="112" rx="28" fill="url(#bg)"/>
  <rect
    x="12"
    y="12"
    width="104"
    height="104"
    rx="24"
    stroke="#FFFFFF"
    stroke-opacity="0.12"
    stroke-width="2"
  />

  <circle cx="64" cy="64" r="33" stroke="url(#ring)" stroke-width="6"/>
  <circle cx="64" cy="64" r="24" fill="#0A1422" fill-opacity="0.34"/>

  <path
    d="M44 38H52V46H58V38H70V46H76V38H84V56L79 61V84H86V94H42V84H49V61L44 56V38Z"
    fill="url(#rook)"
  />
  <rect x="49" y="61" width="30" height="6" rx="3" fill="#14395B"/>
  <rect x="55" y="68" width="18" height="16" rx="4" fill="#14395B"/>
  <rect x="44" y="94" width="40" height="6" rx="3" fill="#E9B25B"/>

  <circle cx="28" cy="44" r="4" fill="#7FD7FF"/>
  <circle cx="96" cy="28" r="4" fill="#FFC56E"/>
  <circle cx="100" cy="96" r="4" fill="#7FD7FF"/>
  <path
    d="M32 44C42 34 53 28 64 28H92M88 96H76C66 96 58 93 50 86"
    stroke="#FFFFFF"
    stroke-opacity="0.32"
    stroke-width="3"
    stroke-linecap="round"
  />
</svg>
